{
.formatVersion = 3;
DisplayStrings = (
"kitefestivalisfamousinindia\rorangeisage",
e
);
familyName = Unnamed;
customParameters = (
{
name = glyphOrder;
value = (
.notdef,
n,
o,
p,
h,
i,
j,
m,
l,
f,
u,
v,
w,
y,
r,
b,
q,
d,
t,
g,
a,
c,
e,
z,
x,
s,
k,
CR
);
}
);
fontMaster = (
{
customParameters = (
{
name = typoAscender;
value = 750;
},
{
name = typoDescender;
value = -250;
},
{
name = typoLineGap;
value = 100;
},
{
name = winAscent;
value = 750;
},
{
name = winDescent;
value = 250;
},
{
name = underlineThickness;
value = 50;
},
{
name = underlinePosition;
value = -100;
},
{
name = strikeoutPosition;
value = 300;
},
{
name = strikeoutSize;
value = 50;
},
{
name = subscriptXOffset;
value = 0;
},
{
name = subscriptXSize;
value = 650;
},
{
name = subscriptYOffset;
value = 75;
},
{
name = subscriptYSize;
value = 600;
},
{
name = superscriptXOffset;
value = 0;
},
{
name = superscriptXSize;
value = 650;
},
{
name = superscriptYOffset;
value = 350;
},
{
name = superscriptYSize;
value = 600;
},
{
name = hheaAscender;
value = 750;
},
{
name = hheaDescender;
value = -250;
},
{
name = hheaLineGap;
value = 100;
}
);
guides = (
{
position = "{0, 250}";
}
);
id = "DE289C98-703D-4D47-9375-129CD6968CF1";
metricValues = (
{
pos = 750;
},
{
pos = 700;
},
{
pos = -250;
},
{
pos = 0;
},
{
pos = 500;
}
);
}
);
glyphs = (
{
glyphname = n;
layers = (
{
layerId = "F4706768-9982-43B9-B76B-B94B06DE68FE";
name = "pen ";
shapes = (
{
attr = {
strokeWidth = 56;
};
closed = 0;
nodes = (
(9,430,l),
(50,466,l),
(98,419,l),
(98,346,l),
(98,64,l),
(146,33,l),
(146,33,o),
(180,73,o),
(180,73,c)
);
},
{
attr = {
strokeWidth = 56;
};
closed = 0;
nodes = (
(322,385,l),
(322,64,l),
(370,33,l),
(404,73,l)
);
},
{
attr = {
strokeWidth = 56;
};
closed = 0;
nodes = (
(98,364,l),
(244,466,l),
(322,385,l),
(353,410,l)
);
},
{
attr = {
strokeWidth = 56;
};
closed = 0;
nodes = (
(72,80,l),
(107,58,l)
);
},
{
attr = {
strokeWidth = 56;
};
closed = 0;
nodes = (
(296,80,l),
(331,58,l)
);
}
);
width = 406;
},
{
guides = (
{
angle = 90;
position = "{-141, 0}";
}
);
layerId = "DE289C98-703D-4D47-9375-129CD6968CF1";
shapes = (
{
closed = 1;
nodes = (
(380,364,l),
(344,406,l),
(410,462,l),
(446,420,l)
);
},
{
closed = 1;
nodes = (
(46,390,l),
(11,433,l),
(86,499,l),
(168,419,l),
(168,70,l),
(112,80,l),
(112,395,l),
(86,421,l)
);
},
{
closed = 1;
nodes = (
(121,359,l),
(296,500,l),
(391,394,l),
(391,72,l),
(335,72,l),
(335,372,l),
(292,420,l),
(159,317,l)
);
},
{
closed = 1;
nodes = (
(324,76,l),
(359,124,l),
(419,73,l),
(450,105,l),
(490,67,l),
(425,-1,l)
);
},
{
closed = 1;
nodes = (
(96,76,l),
(131,124,l),
(191,73,l),
(222,105,l),
(262,67,l),
(197,-1,l)
);
}
);
width = 503;
}
);
unicode = 110;
},
{
glyphname = o;
layers = (
{
layerId = "970B1AEC-1653-48DF-BEE4-185E44DF27B8";
name = pen;
shapes = (
{
attr = {
strokeWidth = 56;
};
closed = 0;
nodes = (
(94,82,l),
(227,29,l),
(318,107,l),
(318,406,l),
(196,472,l),
(94,391,l),
(94,82,l),
(58,52,l)
);
},
{
attr = {
strokeWidth = 56;
};
closed = 0;
nodes = (
(318,406,l),
(349,431,l)
);
}
);
width = 407;
},
{
guides = (
{
position = "{0, 500}";
},
{
position = "{0, 0}";
}
);
layerId = "DE289C98-703D-4D47-9375-129CD6968CF1";
shapes = (
{
closed = 1;
nodes = (
(68,20,l),
(26,56,l),
(56,91,l),
(56,408,l),
(181,502,l),
(301,442,l),
(329,473,l),
(371,435,l),
(313,372,l),
(187,436,l),
(112,380,l),
(112,71,l)
);
},
{
closed = 1;
nodes = (
(73,61,l),
(95,113,l),
(205,64,l),
(279,118,l),
(279,407,l),
(335,407,l),
(335,90,l),
(211,0,l)
);
}
);
width = 397;
}
);
unicode = 111;
},
{
glyphname = p;
layers = (
{
layerId = "970B1AEC-1653-48DF-BEE4-185E44DF27B8";
name = pen;
shapes = (
{
attr = {
strokeWidth = 56;
};
closed = 0;
nodes = (
(9,430,l),
(50,466,l),
(98,419,l),
(98,346,l),
(98,64,l)
);
},
{
attr = {
strokeWidth = 56;
};
closed = 0;
nodes = (
(322,385,l),
(322,85,l)
);
},
{
attr = {
strokeWidth = 56;
};
closed = 0;
nodes = (
(98,364,l),
(244,466,l),
(322,385,l),
(353,410,l)
);
},
{
attr = {
strokeWidth = 56;
};
closed = 0;
nodes = (
(59,99,l),
(241,29,l),
(332,107,l)
);
},
{
attr = {
strokeWidth = 56;
};
closed = 0;
nodes = (
(286,-114,l),
(98,-24,l),
(98,64,l)
);
}
);
width = 401;
},
{
layerId = "DE289C98-703D-4D47-9375-129CD6968CF1";
shapes = (
{
closed = 1;
nodes = (
(263,-125,l),
(112,-47,l),
(112,119,l),
(168,119,l),
(168,-15,l),
(301,-81,l)
);
},
{
closed = 1;
nodes = (
(53,391,l),
(15,431,l),
(86,499,l),
(168,419,l),
(168,70,l),
(112,80,l),
(112,395,l),
(86,421,l)
);
},
{
closed = 1;
nodes = (
(112,365,l),
(297,500,l),
(392,394,l),
(392,99,l),
(336,99,l),
(336,372,l),
(293,420,l),
(147,317,l)
);
},
{
closed = 1;
nodes = (
(378,364,l),
(342,406,l),
(408,462,l),
(444,420,l)
);
},
{
closed = 1;
nodes = (
(392,99,l),
(268,0,l),
(82,91,l),
(107,143,l),
(263,65,l),
(350,136,l)
);
}
);
width = 537;
}
);
unicode = 112;
},
{
glyphname = h;
layers = (
{
layerId = "970B1AEC-1653-48DF-BEE4-185E44DF27B8";
name = pen;
shapes = (
{
attr = {
strokeWidth = 56;
};
closed = 0;
nodes = (
(9,629,l),
(50,665,l),
(98,618,l),
(98,346,l),
(98,64,l),
(146,33,l),
(146,33,o),
(180,73,o),
(180,73,c)
);
},
{
attr = {
strokeWidth = 56;
};
closed = 0;
nodes = (
(322,385,l),
(322,64,l),
(370,33,l),
(404,73,l)
);
},
{
attr = {
strokeWidth = 56;
};
closed = 0;
nodes = (
(98,364,l),
(244,466,l),
(322,385,l),
(353,410,l)
);
},
{
attr = {
strokeWidth = 56;
};
closed = 0;
nodes = (
(72,80,l),
(107,58,l)
);
},
{
attr = {
strokeWidth = 56;
};
closed = 0;
nodes = (
(296,80,l),
(331,58,l)
);
}
);
width = 406;
},
{
layerId = "DE289C98-703D-4D47-9375-129CD6968CF1";
shapes = (
{
closed = 1;
nodes = (
(40,591,l),
(2,631,l),
(73,699,l),
(155,619,l),
(155,70,l),
(99,80,l),
(99,595,l),
(73,621,l)
);
},
{
closed = 1;
nodes = (
(83,76,l),
(118,124,l),
(178,73,l),
(209,105,l),
(249,67,l),
(184,-1,l)
);
},
{
closed = 1;
nodes = (
(109,359,l),
(284,500,l),
(379,394,l),
(379,71,l),
(323,71,l),
(323,372,l),
(280,420,l),
(147,317,l)
);
},
{
closed = 1;
nodes = (
(312,75,l),
(347,123,l),
(407,72,l),
(438,104,l),
(478,66,l),
(413,-2,l)
);
},
{
closed = 1;
nodes = (
(365,364,l),
(329,406,l),
(395,462,l),
(431,420,l)
);
}
);
width = 477;
}
);
unicode = 104;
},
{
glyphname = i;
layers = (
{
layerId = "970B1AEC-1653-48DF-BEE4-185E44DF27B8";
name = pen;
shapes = (
{
attr = {
strokeWidth = 56;
};
closed = 0;
nodes = (
(9,430,l),
(50,466,l),
(98,419,l),
(98,346,l),
(98,64,l),
(146,33,l),
(158,46,o),
(168,60,o),
(180,73,c)
);
},
{
attr = {
strokeWidth = 56;
};
closed = 0;
nodes = (
(72,80,l),
(107,58,l)
);
},
{
attr = {
strokeWidth = 56;
};
closed = 0;
nodes = (
(96,530,l),
(146,578,l)
);
},
{
attr = {
strokeWidth = 56;
};
closed = 0;
nodes = (
(107,410,l),
(138,439,l)
);
}
);
width = 181;
},
{
layerId = "DE289C98-703D-4D47-9375-129CD6968CF1";
shapes = (
{
closed = 1;
nodes = (
(40,391,l),
(2,431,l),
(73,499,l),
(155,419,l),
(155,70,l),
(99,80,l),
(99,395,l),
(73,421,l)
);
},
{
closed = 1;
nodes = (
(83,76,l),
(118,124,l),
(178,73,l),
(209,105,l),
(249,67,l),
(184,-1,l)
);
},
{
closed = 1;
nodes = (
(142,364,l),
(106,406,l),
(176,466,l),
(212,424,l)
);
},
{
closed = 1;
nodes = (
(126,520,l),
(90,562,l),
(145,608,l),
(181,566,l)
);
}
);
width = 252;
}
);
unicode = 105;
},
{
glyphname = j;
layers = (
{
guides = (
{
position = "{0, -71}";
},
{
position = "{0, -141}";
}
);
layerId = "970B1AEC-1653-48DF-BEE4-185E44DF27B8";
name = pen;
shapes = (
{
attr = {
strokeWidth = 56;
};
closed = 0;
nodes = (
(14,430,l),
(55,466,l),
(103,419,l),
(103,346,l),
(103,64,l),
(103,12,l),
(14,-118,l)
);
},
{
attr = {
strokeWidth = 56;
};
closed = 0;
nodes = (
(101,530,l),
(151,578,l)
);
},
{
attr = {
strokeWidth = 56;
};
closed = 0;
nodes = (
(112,410,l),
(143,439,l)
);
}
);
width = 191;
},
{
layerId = "DE289C98-703D-4D47-9375-129CD6968CF1";
shapes = (
{
attr = {
strokeWidth = 56;
};
closed = 1;
nodes = (
(40,391,l),
(2,431,l),
(73,499,l),
(155,419,l),
(155,70,l),
(99,80,l),
(99,395,l),
(73,421,l)
);
},
{
attr = {
strokeWidth = 56;
};
closed = 1;
nodes = (
(126,520,l),
(90,562,l),
(145,608,l),
(181,566,l)
);
},
{
attr = {
strokeWidth = 56;
};
closed = 1;
nodes = (
(142,364,l),
(106,406,l),
(176,466,l),
(212,424,l)
);
},
{
closed = 1;
nodes = (
(46,-125,l),
(2,-91,l),
(99,23,l),
(99,119,l),
(155,119,l),
(155,3,l)
);
}
);
width = 218;
}
);
unicode = 106;
},
{
glyphname = m;
layers = (
{
layerId = "970B1AEC-1653-48DF-BEE4-185E44DF27B8";
name = pen;
shapes = (
{
attr = {
strokeWidth = 56;
};
closed = 0;
nodes = (
(9,430,l),
(50,466,l),
(98,419,l),
(98,346,l),
(98,64,l),
(146,33,l),
(158,46,o),
(168,60,o),
(180,73,c)
);
},
{
attr = {
strokeWidth = 56;
};
closed = 0;
nodes = (
(322,385,l),
(322,64,l),
(370,33,l),
(404,73,l)
);
},
{
attr = {
strokeWidth = 56;
};
closed = 0;
nodes = (
(98,364,l),
(244,466,l),
(322,385,l)
);
},
{
attr = {
strokeWidth = 56;
};
closed = 0;
nodes = (
(72,80,l),
(107,58,l)
);
},
{
attr = {
strokeWidth = 56;
};
closed = 0;
nodes = (
(296,80,l),
(331,58,l)
);
},
{
attr = {
strokeWidth = 56;
};
closed = 0;
nodes = (
(547,385,l),
(547,64,l),
(595,33,l),
(629,73,l)
);
},
{
attr = {
strokeWidth = 56;
};
closed = 0;
nodes = (
(323,364,l),
(469,466,l),
(547,385,l),
(578,410,l)
);
},
{
attr = {
strokeWidth = 56;
};
closed = 0;
nodes = (
(521,80,l),
(556,58,l)
);
}
);
width = 631;
},
{
layerId = "DE289C98-703D-4D47-9375-129CD6968CF1";
shapes = (
{
closed = 1;
nodes = (
(53,391,l),
(15,431,l),
(86,499,l),
(168,419,l),
(168,69,l),
(112,79,l),
(112,395,l),
(86,421,l)
);
},
{
closed = 1;
nodes = (
(121,359,l),
(296,500,l),
(391,394,l),
(391,71,l),
(335,71,l),
(335,372,l),
(292,420,l),
(159,317,l)
);
},
{
closed = 1;
nodes = (
(347,359,l),
(522,500,l),
(617,394,l),
(617,72,l),
(561,72,l),
(561,372,l),
(518,420,l),
(385,317,l)
);
},
{
closed = 1;
nodes = (
(324,75,l),
(359,123,l),
(419,72,l),
(450,104,l),
(490,66,l),
(425,-2,l)
);
},
{
closed = 1;
nodes = (
(96,75,l),
(131,123,l),
(191,72,l),
(222,104,l),
(262,66,l),
(197,-2,l)
);
},
{
closed = 1;
nodes = (
(544,75,l),
(579,123,l),
(639,72,l),
(670,104,l),
(710,66,l),
(645,-2,l)
);
},
{
closed = 1;
nodes = (
(602,364,l),
(566,406,l),
(632,462,l),
(668,420,l)
);
}
);
width = 728;
}
);
unicode = 109;
},
{
glyphname = l;
layers = (
{
layerId = "970B1AEC-1653-48DF-BEE4-185E44DF27B8";
name = pen;
shapes = (
{
attr = {
strokeWidth = 56;
};
closed = 0;
nodes = (
(9,629,l),
(50,665,l),
(98,618,l),
(98,346,l),
(98,64,l),
(146,33,l),
(146,33,o),
(180,73,o),
(180,73,c)
);
},
{
attr = {
strokeWidth = 56;
};
closed = 0;
nodes = (
(72,80,l),
(107,58,l)
);
},
{
attr = {
strokeWidth = 56;
};
closed = 0;
nodes = (
(109,614,l),
(140,639,l)
);
}
);
width = 182;
},
{
guides = (
{
position = "{0, 699}";
}
);
layerId = "DE289C98-703D-4D47-9375-129CD6968CF1";
shapes = (
{
attr = {
strokeWidth = 56;
};
closed = 1;
nodes = (
(40,591,l),
(2,631,l),
(73,699,l),
(155,619,l),
(155,70,l),
(99,80,l),
(99,595,l),
(73,621,l)
);
},
{
attr = {
strokeWidth = 56;
};
closed = 1;
nodes = (
(83,76,l),
(118,124,l),
(178,73,l),
(209,105,l),
(249,67,l),
(184,-1,l)
);
},
{
closed = 1;
nodes = (
(87,636,l),
(111,664,o),
(180,711,o),
(242,652,c),
(204,612,l),
(180,635,o),
(149,622,o),
(129,600,c)
);
}
);
width = 253;
}
);
unicode = 108;
},
{
glyphname = f;
layers = (
{
layerId = "970B1AEC-1653-48DF-BEE4-185E44DF27B8";
name = pen;
shapes = (
{
attr = {
strokeWidth = 56;
};
closed = 0;
nodes = (
(72,80,l),
(107,58,l)
);
},
{
attr = {
strokeWidth = 56;
};
closed = 0;
nodes = (
(180,73,l),
(180,73,o),
(146,33,o),
(146,33,c),
(98,64,l),
(98,628,l),
(151,664,l),
(208,612,l)
);
},
{
attr = {
strokeWidth = 56;
};
closed = 0;
nodes = (
(43,463,l),
(197,463,l)
);
}
);
width = 212;
},
{
guides = (
{
position = "{0, 699}";
},
{
angle = 90;
position = "{230, 0}";
}
);
layerId = "DE289C98-703D-4D47-9375-129CD6968CF1";
shapes = (
{
closed = 1;
nodes = (
(126,595,l),
(126,70,l),
(70,80,l),
(70,595,l)
);
},
{
closed = 1;
nodes = (
(54,76,l),
(89,124,l),
(149,73,l),
(180,105,l),
(220,67,l),
(155,-1,l)
);
},
{
closed = 1;
nodes = (
(126,544,l),
(70,544,l),
(70,640,l),
(154,698,l),
(183,679,o),
(197,660,o),
(230,638,c),
(198,592,l),
(178,605,o),
(163,619,o),
(152,629,c),
(126,610,l)
);
},
{
closed = 1;
nodes = (
(19,448,l),
(46,500,l),
(227,500,l),
(201,448,l)
);
}
);
width = 224;
}
);
unicode = 102;
},
{
glyphname = u;
layers = (
{
layerId = "970B1AEC-1653-48DF-BEE4-185E44DF27B8";
name = pen;
shapes = (
{
attr = {
strokeWidth = 56;
};
closed = 0;
nodes = (
(9,430,l),
(50,466,l),
(98,419,l),
(98,346,l),
(98,93,l),
(98,83,l)
);
},
{
attr = {
strokeWidth = 56;
};
closed = 0;
nodes = (
(404,73,l),
(370,33,l),
(322,64,l),
(322,419,l),
(271,471,l)
);
},
{
attr = {
strokeWidth = 56;
};
closed = 0;
nodes = (
(332,414,l),
(363,439,l)
);
},
{
attr = {
strokeWidth = 56;
};
closed = 0;
nodes = (
(83,107,l),
(220,35,l),
(326,143,l)
);
}
);
width = 406;
},
{
layerId = "DE289C98-703D-4D47-9375-129CD6968CF1";
shapes = (
{
closed = 1;
nodes = (
(320,489,l),
(379,429,l),
(379,70,l),
(323,70,l),
(323,405,l),
(278,447,l)
);
},
{
closed = 1;
nodes = (
(323,70,l),
(356,117,l),
(406,73,l),
(433,105,l),
(473,72,l),
(408,-1,l)
);
},
{
closed = 1;
nodes = (
(366,374,l),
(330,416,l),
(400,476,l),
(436,434,l)
);
},
{
closed = 1;
nodes = (
(39,391,l),
(1,431,l),
(72,499,l),
(154,419,l),
(154,70,l),
(98,70,l),
(98,395,l),
(72,421,l)
);
},
{
closed = 1;
nodes = (
(98,70,l),
(127,118,l),
(207,67,l),
(335,204,l),
(359,162,l),
(207,0,l)
);
}
);
width = 533;
}
);
unicode = 117;
},
{
glyphname = v;
layers = (
{
layerId = "970B1AEC-1653-48DF-BEE4-185E44DF27B8";
name = pen;
shapes = (
{
attr = {
strokeWidth = 56;
};
closed = 0;
nodes = (
(9,430,l),
(50,466,l),
(98,419,l),
(98,346,l),
(98,93,l),
(98,83,l)
);
},
{
attr = {
strokeWidth = 56;
};
closed = 0;
nodes = (
(271,471,l),
(322,419,l),
(322,93,l),
(226,30,l),
(62,118,l)
);
},
{
attr = {
strokeWidth = 56;
};
closed = 0;
nodes = (
(332,414,l),
(363,439,l)
);
}
);
width = 401;
},
{
layerId = "DE289C98-703D-4D47-9375-129CD6968CF1";
shapes = (
{
closed = 1;
nodes = (
(320,489,l),
(379,429,l),
(379,70,l),
(323,70,l),
(323,405,l),
(278,447,l)
);
},
{
closed = 1;
nodes = (
(366,374,l),
(330,416,l),
(400,476,l),
(436,434,l)
);
},
{
closed = 1;
nodes = (
(39,391,l),
(1,431,l),
(72,499,l),
(154,419,l),
(154,70,l),
(98,70,l),
(98,395,l),
(72,421,l)
);
},
{
closed = 1;
nodes = (
(379,70,l),
(318,74,o),
(275,57,o),
(208,0,c),
(98,70,l),
(127,118,l),
(207,67,l),
(237,89,o),
(280,110,o),
(323,118,c)
);
}
);
width = 448;
}
);
unicode = 118;
},
{
glyphname = w;
layers = (
{
layerId = "970B1AEC-1653-48DF-BEE4-185E44DF27B8";
name = pen;
shapes = (
{
attr = {
strokeWidth = 56;
};
closed = 0;
nodes = (
(9,430,l),
(50,466,l),
(98,419,l),
(98,346,l),
(98,93,l),
(98,81,l)
);
},
{
attr = {
strokeWidth = 56;
};
closed = 0;
nodes = (
(271,471,l),
(322,419,l),
(322,93,l),
(227,30,l),
(62,118,l)
);
},
{
attr = {
strokeWidth = 56;
};
closed = 0;
nodes = (
(495,471,l),
(546,419,l),
(546,93,l),
(468,30,l),
(323,107,l)
);
},
{
attr = {
strokeWidth = 56;
};
closed = 0;
nodes = (
(556,414,l),
(587,439,l)
);
}
);
width = 625;
},
{
layerId = "DE289C98-703D-4D47-9375-129CD6968CF1";
shapes = (
{
closed = 1;
nodes = (
(320,491,l),
(379,431,l),
(379,70,l),
(323,70,l),
(323,407,l),
(278,449,l)
);
},
{
closed = 1;
nodes = (
(39,391,l),
(1,431,l),
(72,499,l),
(154,419,l),
(154,70,l),
(98,70,l),
(98,395,l),
(72,421,l)
);
},
{
closed = 1;
nodes = (
(379,70,l),
(318,74,o),
(275,57,o),
(208,0,c),
(98,70,l),
(127,118,l),
(207,67,l),
(237,89,o),
(280,110,o),
(323,118,c)
);
},
{
closed = 1;
nodes = (
(320,491,l),
(379,431,l),
(379,70,l),
(323,70,l),
(323,407,l),
(278,449,l)
);
},
{
closed = 1;
nodes = (
(379,70,l),
(318,74,o),
(275,57,o),
(208,0,c),
(98,70,l),
(127,118,l),
(207,67,l),
(237,89,o),
(280,110,o),
(323,118,c)
);
},
{
closed = 1;
nodes = (
(543,491,l),
(602,431,l),
(602,70,l),
(546,70,l),
(546,407,l),
(501,449,l)
);
},
{
closed = 1;
nodes = (
(589,376,l),
(553,418,l),
(623,478,l),
(659,436,l)
);
},
{
closed = 1;
nodes = (
(602,70,l),
(541,74,o),
(498,57,o),
(431,0,c),
(321,70,l),
(350,118,l),
(430,67,l),
(460,89,o),
(503,110,o),
(546,118,c)
);
}
);
width = 786;
}
);
unicode = 119;
},
{
glyphname = y;
layers = (
{
guides = (
{
position = "{0, -142}";
}
);
layerId = "970B1AEC-1653-48DF-BEE4-185E44DF27B8";
name = pen;
shapes = (
{
attr = {
strokeWidth = 56;
};
closed = 0;
nodes = (
(9,430,l),
(50,466,l),
(98,419,l),
(98,346,l),
(98,93,l),
(98,83,l)
);
},
{
attr = {
strokeWidth = 56;
};
closed = 0;
nodes = (
(271,471,l),
(322,419,l),
(322,93,l),
(232,30,l),
(62,118,l)
);
},
{
attr = {
strokeWidth = 56;
};
closed = 0;
nodes = (
(332,414,l),
(363,439,l)
);
},
{
attr = {
strokeWidth = 56;
};
closed = 0;
nodes = (
(322,93,l),
(322,-38,l),
(211,-108,l),
(89,-38,l)
);
}
);
width = 411;
},
{
guides = (
{
position = "{0, -114}";
}
);
layerId = "DE289C98-703D-4D47-9375-129CD6968CF1";
shapes = (
{
closed = 1;
nodes = (
(319,489,l),
(378,429,l),
(378,70,l),
(322,70,l),
(322,405,l),
(277,447,l)
);
},
{
closed = 1;
nodes = (
(365,374,l),
(329,416,l),
(399,476,l),
(435,434,l)
);
},
{
closed = 1;
nodes = (
(38,391,l),
(0,431,l),
(71,499,l),
(153,419,l),
(153,70,l),
(97,70,l),
(97,395,l),
(71,421,l)
);
},
{
closed = 1;
nodes = (
(378,70,l),
(317,74,o),
(274,57,o),
(207,0,c),
(97,70,l),
(126,118,l),
(206,67,l),
(236,89,o),
(279,110,o),
(322,118,c)
);
},
{
closed = 1;
nodes = (
(322,0,l),
(322,119,l),
(378,119,l),
(378,0,l)
);
},
{
closed = 1;
nodes = (
(378,17,l),
(378,-54,l),
(316,-50,o),
(272,-78,o),
(229,-125,c),
(83,-56,l),
(107,-6,l),
(218,-58,l),
(262,-22,o),
(308,-2,o),
(322,1,c),
(322,17,l)
);
}
);
width = 510;
}
);
unicode = 121;
},
{
glyphname = r;
layers = (
{
layerId = "970B1AEC-1653-48DF-BEE4-185E44DF27B8";
name = pen;
shapes = (
{
attr = {
strokeWidth = 56;
};
closed = 0;
nodes = (
(9,430,l),
(50,466,l),
(98,419,l),
(98,346,l),
(98,64,l),
(146,33,l),
(146,33,o),
(180,73,o),
(180,73,c)
);
},
{
attr = {
strokeWidth = 56;
};
closed = 0;
nodes = (
(98,364,l),
(214,471,l),
(289,391,l)
);
},
{
attr = {
strokeWidth = 56;
};
closed = 0;
nodes = (
(72,80,l),
(107,58,l)
);
}
);
width = 310;
},
{
layerId = "DE289C98-703D-4D47-9375-129CD6968CF1";
shapes = (
{
closed = 1;
nodes = (
(96,76,l),
(131,124,l),
(191,73,l),
(222,105,l),
(262,67,l),
(197,-1,l)
);
},
{
closed = 1;
nodes = (
(53,391,l),
(15,431,l),
(86,499,l),
(168,419,l),
(168,70,l),
(112,80,l),
(112,395,l),
(86,421,l)
);
},
{
closed = 1;
nodes = (
(231,421,l),
(158,340,l),
(120,374,l),
(231,500,l)
);
},
{
closed = 1;
nodes = (
(231,499,l),
(341,374,l),
(300,336,l),
(195,457,l)
);
}
);
width = 336;
}
);
unicode = 114;
},
{
glyphname = b;
layers = (
{
layerId = "970B1AEC-1653-48DF-BEE4-185E44DF27B8";
name = pen;
shapes = (
{
attr = {
strokeWidth = 56;
};
closed = 0;
nodes = (
(9,626,l),
(50,662,l),
(98,615,l),
(98,346,l),
(98,83,l)
);
},
{
attr = {
strokeWidth = 56;
};
closed = 0;
nodes = (
(322,385,l),
(322,85,l)
);
},
{
attr = {
strokeWidth = 56;
};
closed = 0;
nodes = (
(98,364,l),
(244,466,l),
(322,385,l),
(353,410,l)
);
},
{
attr = {
strokeWidth = 56;
};
closed = 0;
nodes = (
(59,99,l),
(241,29,l),
(332,107,l)
);
}
);
width = 411;
},
{
layerId = "DE289C98-703D-4D47-9375-129CD6968CF1";
shapes = (
{
closed = 1;
nodes = (
(126,365,l),
(311,500,l),
(406,394,l),
(406,99,l),
(350,99,l),
(350,372,l),
(307,420,l),
(161,317,l)
);
},
{
closed = 1;
nodes = (
(392,364,l),
(356,406,l),
(422,462,l),
(458,420,l)
);
},
{
closed = 1;
nodes = (
(406,99,l),
(282,0,l),
(96,91,l),
(121,143,l),
(277,65,l),
(364,136,l)
);
},
{
closed = 1;
nodes = (
(54,591,l),
(16,631,l),
(87,699,l),
(169,619,l),
(169,85,l),
(113,95,l),
(113,595,l),
(87,621,l)
);
}
);
width = 475;
}
);
unicode = 98;
},
{
glyphname = q;
layers = (
{
layerId = "970B1AEC-1653-48DF-BEE4-185E44DF27B8";
name = pen;
shapes = (
{
attr = {
strokeWidth = 56;
};
closed = 0;
nodes = (
(340,410,l),
(309,385,l),
(309,385,o),
(190,469,o),
(190,469,c),
(84,391,l),
(84,82,l)
);
},
{
attr = {
strokeWidth = 56;
};
closed = 0;
nodes = (
(309,385,l),
(309,-73,l),
(357,-104,l),
(391,-64,l)
);
},
{
attr = {
strokeWidth = 56;
};
closed = 0;
nodes = (
(309,385,l),
(340,410,l)
);
},
{
attr = {
strokeWidth = 56;
};
closed = 0;
nodes = (
(309,120,l),
(203,33,l),
(43,115,l)
);
}
);
width = 393;
},
{
guides = (
{
position = "{0, -113}";
},
{
position = "{0, -127}";
}
);
layerId = "DE289C98-703D-4D47-9375-129CD6968CF1";
shapes = (
{
closed = 1;
nodes = (
(167,502,l),
(323,394,l),
(323,99,l),
(267,99,l),
(267,368,l),
(124,469,l)
);
},
{
closed = 1;
nodes = (
(309,364,l),
(273,406,l),
(339,462,l),
(375,420,l)
);
},
{
closed = 1;
nodes = (
(323,99,l),
(184,0,l),
(13,91,l),
(38,143,l),
(184,66,l),
(281,136,l)
);
},
{
closed = 1;
nodes = (
(167,502,l),
(188,446,l),
(98,380,l),
(99,70,l),
(42,91,l),
(42,408,l)
);
},
{
closed = 1;
nodes = (
(267,-48,l),
(267,119,l),
(323,119,l),
(323,-35,l)
);
},
{
closed = 1;
nodes = (
(267,-48,l),
(302,0,l),
(362,-51,l),
(393,-19,l),
(433,-57,l),
(368,-125,l)
);
}
);
width = 435;
}
);
unicode = 113;
},
{
glyphname = d;
layers = (
{
layerId = "970B1AEC-1653-48DF-BEE4-185E44DF27B8";
name = pen;
shapes = (
{
attr = {
strokeWidth = 56;
};
closed = 0;
nodes = (
(320,385,l),
(351,410,l)
);
},
{
attr = {
strokeWidth = 56;
};
closed = 0;
nodes = (
(55,113,l),
(228,32,l),
(320,120,l),
(320,385,l)
);
},
{
attr = {
strokeWidth = 56;
};
closed = 0;
nodes = (
(201,469,l),
(95,391,l),
(95,82,l)
);
},
{
attr = {
strokeWidth = 56;
};
closed = 0;
nodes = (
(76,681,l),
(61,665,o),
(46,649,o),
(31,633,c),
(31,633,o),
(320,385,o),
(320,385,c),
(351,410,l)
);
}
);
width = 399;
},
{
layerId = "DE289C98-703D-4D47-9375-129CD6968CF1";
shapes = (
{
closed = 1;
nodes = (
(72,652,l),
(366,394,l),
(366,99,l),
(310,99,l),
(310,372,l),
(28,612,l)
);
},
{
closed = 1;
nodes = (
(352,364,l),
(316,406,l),
(382,462,l),
(418,420,l)
);
},
{
closed = 1;
nodes = (
(366,99,l),
(242,0,l),
(56,91,l),
(81,143,l),
(237,65,l),
(324,136,l)
);
},
{
closed = 1;
nodes = (
(210,502,l),
(231,446,l),
(141,380,l),
(142,70,l),
(85,91,l),
(85,408,l)
);
},
{
attr = {
strokeWidth = 56;
};
closed = 0;
nodes = (
(95,680,l),
(32,610,l)
);
}
);
width = 433;
}
);
unicode = 100;
},
{
glyphname = t;
layers = (
{
layerId = "970B1AEC-1653-48DF-BEE4-185E44DF27B8";
name = pen;
shapes = (
{
attr = {
strokeWidth = 56;
};
closed = 0;
nodes = (
(72,80,l),
(107,58,l)
);
},
{
attr = {
strokeWidth = 56;
};
closed = 0;
nodes = (
(180,73,l),
(180,73,o),
(146,33,o),
(146,33,c),
(98,64,l),
(98,628,l)
);
},
{
attr = {
strokeWidth = 56;
};
closed = 0;
nodes = (
(43,463,l),
(197,463,l)
);
}
);
width = 182;
},
{
layerId = "DE289C98-703D-4D47-9375-129CD6968CF1";
shapes = (
{
closed = 0;
nodes = (
(126,70,l),
(70,80,l)
);
},
{
closed = 1;
nodes = (
(54,76,l),
(89,124,l),
(149,73,l),
(180,105,l),
(220,67,l),
(155,-1,l)
);
},
{
closed = 1;
nodes = (
(126,634,l),
(126,76,l),
(70,86,l),
(70,601,l)
);
},
{
closed = 1;
nodes = (
(9,448,l),
(36,500,l),
(217,500,l),
(191,448,l)
);
}
);
width = 361;
}
);
unicode = 116;
},
{
glyphname = g;
layers = (
{
layerId = "970B1AEC-1653-48DF-BEE4-185E44DF27B8";
name = pen;
shapes = (
{
attr = {
strokeWidth = 56;
};
closed = 0;
nodes = (
(340,410,l),
(309,385,l),
(309,385,o),
(190,469,o),
(190,469,c),
(84,391,l),
(84,82,l)
);
},
{
attr = {
strokeWidth = 56;
};
closed = 0;
nodes = (
(309,385,l),
(340,410,l)
);
},
{
attr = {
strokeWidth = 56;
};
closed = 0;
nodes = (
(309,120,l),
(203,33,l),
(43,115,l)
);
},
{
attr = {
strokeWidth = 56;
};
closed = 0;
nodes = (
(76,-38,l),
(198,-108,l),
(309,-38,l),
(309,93,l),
(309,385,l)
);
}
);
width = 388;
},
{
layerId = "DE289C98-703D-4D47-9375-129CD6968CF1";
shapes = (
{
closed = 1;
nodes = (
(167,502,l),
(323,394,l),
(323,99,l),
(267,99,l),
(267,368,l),
(124,469,l)
);
},
{
closed = 1;
nodes = (
(309,364,l),
(273,406,l),
(339,462,l),
(375,420,l)
);
},
{
closed = 1;
nodes = (
(323,99,l),
(184,0,l),
(13,91,l),
(38,143,l),
(184,66,l),
(281,136,l)
);
},
{
closed = 1;
nodes = (
(167,502,l),
(188,446,l),
(98,380,l),
(99,70,l),
(42,91,l),
(42,408,l)
);
},
{
closed = 1;
nodes = (
(323,17,l),
(323,-64,l),
(257,-75,o),
(244,-86,o),
(188,-125,c),
(35,-56,l),
(59,4,l),
(177,-58,l),
(238,-30,o),
(253,-12,o),
(267,-9,c),
(267,17,l)
);
},
{
closed = 1;
nodes = (
(267,-10,l),
(267,119,l),
(323,119,l),
(323,-10,l)
);
}
);
width = 393;
}
);
unicode = 103;
},
{
glyphname = a;
layers = (
{
layerId = "970B1AEC-1653-48DF-BEE4-185E44DF27B8";
name = pen;
shapes = (
{
attr = {
strokeWidth = 56;
};
closed = 0;
nodes = (
(258,213,l),
(143,270,o),
(115,299,o),
(67,367,c),
(178,471,l),
(178,471,o),
(256,406,o),
(290,384,c),
(290,64,l),
(338,33,l),
(372,73,l)
);
},
{
attr = {
strokeWidth = 56;
};
closed = 0;
nodes = (
(138,278,l),
(65,223,l),
(65,75,l),
(158,28,l),
(280,79,l)
);
},
{
attr = {
strokeWidth = 56;
};
closed = 0;
nodes = (
(300,388,l),
(331,413,l)
);
}
);
width = 374;
}
);
unicode = 97;
},
{
glyphname = c;
layers = (
{
layerId = "970B1AEC-1653-48DF-BEE4-185E44DF27B8";
name = pen;
shapes = (
{
attr = {
strokeWidth = 56;
};
closed = 0;
nodes = (
(92,82,l),
(92,391,l),
(181,470,l),
(303,385,l),
(336,412,l)
);
},
{
attr = {
strokeWidth = 56;
};
closed = 0;
nodes = (
(343,128,l),
(251,30,l),
(51,115,l)
);
}
);
width = 374;
},
{
layerId = "DE289C98-703D-4D47-9375-129CD6968CF1";
shapes = (
{
attr = {
strokeWidth = 56;
};
closed = 0;
nodes = (
(343,437,l),
(286,383,l),
(168,464,l),
(84,387,l),
(84,69,l),
(168,62,o),
(245,30,o),
(245,30,c),
(339,131,l)
);
},
{
attr = {
strokeWidth = 56;
};
closed = 0;
nodes = (
(64,70,l),
(9,60,l)
);
}
);
width = 380;
}
);
unicode = 99;
},
{
glyphname = e;
layers = (
{
layerId = "970B1AEC-1653-48DF-BEE4-185E44DF27B8";
name = pen;
shapes = (
{
attr = {
strokeWidth = 56;
};
closed = 0;
nodes = (
(92,69,l),
(92,387,l),
(213,464,l),
(305,345,l),
(100,227,l)
);
},
{
attr = {
strokeWidth = 56;
};
closed = 0;
nodes = (
(341,128,l),
(212,30,l),
(49,83,l)
);
}
);
width = 358;
},
{
layerId = "DE289C98-703D-4D47-9375-129CD6968CF1";
shapes = (
{
attr = {
strokeWidth = 56;
};
closed = 0;
nodes = (
(325,144,l),
(205,32,l),
(205,32,o),
(168,62,o),
(84,69,c),
(84,387,l),
(205,464,l),
(289,354,l),
(84,241,l)
);
},
{
attr = {
strokeWidth = 56;
};
closed = 0;
nodes = (
(64,70,l),
(43,67,o),
(22,65,o),
(9,60,cs)
);
}
);
width = 350;
}
);
unicode = 101;
},
{
glyphname = z;
layers = (
{
layerId = "970B1AEC-1653-48DF-BEE4-185E44DF27B8";
name = pen;
shapes = (
{
attr = {
strokeWidth = 56;
};
closed = 0;
nodes = (
(412,76,l),
(356,28,l),
(98,28,l),
(355,464,l),
(355,464,o),
(226,455,o),
(108,480,c),
(41,411,l)
);
},
{
attr = {
strokeWidth = 56;
};
closed = 0;
nodes = (
(89,254,l),
(118,262,o),
(133,271,o),
(173,267,cs),
(213,263,o),
(250,242,o),
(275,239,cs),
(300,236,o),
(339,239,o),
(365,246,c)
);
}
);
width = 451;
}
);
unicode = 122;
},
{
glyphname = x;
layers = (
{
layerId = "970B1AEC-1653-48DF-BEE4-185E44DF27B8";
name = pen;
shapes = (
{
attr = {
strokeWidth = 56;
};
closed = 0;
nodes = (
(36,435,l),
(78,461,l),
(314,41,l),
(365,77,l)
);
},
{
attr = {
strokeWidth = 56;
};
closed = 0;
nodes = (
(50,61,l),
(64,52,o),
(88,36,o),
(88,36,cs),
(309,461,l),
(349,435,l)
);
}
);
width = 405;
}
);
unicode = 120;
},
{
glyphname = s;
layers = (
{
layerId = "970B1AEC-1653-48DF-BEE4-185E44DF27B8";
name = pen;
shapes = (
{
attr = {
strokeWidth = 56;
};
closed = 0;
nodes = (
(303,421,l),
(257,437,o),
(164,470,o),
(164,470,c),
(72,411,l),
(36,388,l)
);
},
{
attr = {
strokeWidth = 56;
};
closed = 0;
nodes = (
(75,411,l),
(75,292,l),
(270,254,l),
(271,103,l),
(176,35,l),
(140,66,o),
(119,79,o),
(49,112,cs)
);
},
{
attr = {
strokeWidth = 56;
};
closed = 0;
nodes = (
(274,105,l),
(305,130,l)
);
}
);
width = 343;
}
);
unicode = 115;
},
{
glyphname = k;
layers = (
{
layerId = "970B1AEC-1653-48DF-BEE4-185E44DF27B8";
name = pen;
shapes = (
{
attr = {
strokeWidth = 56;
};
closed = 0;
nodes = (
(9,629,l),
(50,665,l),
(98,618,l),
(98,346,l),
(98,64,l),
(146,33,l),
(146,33,o),
(180,73,o),
(180,73,c)
);
},
{
attr = {
strokeWidth = 56;
};
closed = 0;
nodes = (
(98,364,l),
(235,459,l),
(317,379,l),
(113,249,l)
);
},
{
attr = {
strokeWidth = 56;
};
closed = 0;
nodes = (
(72,80,l),
(107,58,l)
);
},
{
attr = {
strokeWidth = 56;
};
closed = 0;
nodes = (
(410,77,l),
(410,77,o),
(360,37,o),
(360,37,c),
(188,298,l)
);
}
);
width = 406;
},
{
layerId = "DE289C98-703D-4D47-9375-129CD6968CF1";
shapes = (
{
closed = 1;
nodes = (
(52,591,l),
(14,631,l),
(85,699,l),
(167,619,l),
(167,70,l),
(111,80,l),
(111,595,l),
(85,621,l)
);
},
{
closed = 1;
nodes = (
(95,76,l),
(130,124,l),
(190,73,l),
(221,105,l),
(261,67,l),
(196,-1,l)
);
},
{
closed = 1;
nodes = (
(309,394,l),
(266,443,l),
(141,373,l),
(126,421,l),
(272,505,l),
(390,388,l),
(139,234,l),
(141,297,l)
);
},
{
attr = {
strokeWidth = 58;
};
closed = 0;
nodes = (
(202,297,l),
(266,209,o),
(395,37,o),
(395,37,c),
(450,90,l)
);
}
);
width = 463;
}
);
unicode = 107;
},
